<svg width="36" height="36" viewBox="0 0 36 36" fill="none" xmlns="http://www.w3.org/2000/svg">
<circle cx="18" cy="18" r="18" fill="#0C7FC0"/>
<path d="M11.411 27V9.22656H18.1859C20.0983 9.22656 21.5794 9.61312 22.6292 10.3862C23.679 11.1512 24.2039 12.3149 24.2039 13.8774C24.2039 14.8621 23.9802 15.6759 23.5326 16.3188C23.085 16.9536 22.5275 17.389 21.8602 17.625V17.6738C22.6903 17.9098 23.3739 18.3818 23.911 19.0898C24.4562 19.7979 24.7289 20.7419 24.7289 21.9219C24.7289 23.5251 24.1633 24.7743 23.0321 25.6694C21.9009 26.5565 20.3954 27 18.5155 27H11.411ZM15.2318 24.3022H18.1737C19.0851 24.3022 19.7565 24.0662 20.1878 23.5942C20.6191 23.1222 20.8348 22.4834 20.8348 21.6777C20.8348 20.8721 20.6191 20.2332 20.1878 19.7612C19.7565 19.2892 19.0851 19.0532 18.1737 19.0532H15.2318V24.3022ZM15.2318 16.6118H17.8563C18.7596 16.6118 19.4107 16.4084 19.8094 16.0015C20.2082 15.5864 20.4076 15.0086 20.4076 14.2681C20.4076 13.5275 20.2082 12.9619 19.8094 12.5713C19.4107 12.1725 18.7596 11.9731 17.8563 11.9731H15.2318V16.6118Z" fill="white"/>
</svg>
