<svg width="36" height="36" viewBox="0 0 36 36" fill="none" xmlns="http://www.w3.org/2000/svg">
<circle cx="18" cy="18" r="18" fill="#0C7FC0"/>
<path d="M10.4832 18.6504V17.5762C10.4832 14.679 11.1994 12.5103 12.6317 11.0698C14.0721 9.62126 15.9439 8.89697 18.2469 8.89697C20.4442 8.89697 22.1776 9.46257 23.4471 10.5938C24.7166 11.7168 25.3514 13.2142 25.3514 15.0859V15.5864H21.5062V14.9517C21.5062 13.9425 21.2336 13.1654 20.6883 12.6201C20.1512 12.0749 19.3333 11.8022 18.2347 11.8022C17.1117 11.8022 16.2083 12.2051 15.5247 13.0107C14.8493 13.8164 14.5116 15.1348 14.5116 16.9658V19.2607C14.5116 20.9941 14.8452 22.2922 15.5125 23.1548C16.188 24.0093 17.1117 24.4365 18.2835 24.4365C19.3333 24.4365 20.1187 24.1517 20.6395 23.582C21.1685 23.0042 21.4533 22.2067 21.494 21.1895L21.5062 20.6646H25.3514V21.2383C25.2944 23.0368 24.6475 24.5016 23.4105 25.6328C22.1735 26.764 20.4523 27.3296 18.2469 27.3296C15.9032 27.3296 14.0233 26.6012 12.6073 25.1445C11.1913 23.6797 10.4832 21.515 10.4832 18.6504Z" fill="white"/>
</svg>
