<svg width="36" height="36" viewBox="0 0 36 36" fill="none" xmlns="http://www.w3.org/2000/svg">
<circle cx="18" cy="18" r="18" fill="#0C7FC0"/>
<path d="M10.6786 27V9.22656H14.7557L20.6517 19.9199C20.79 20.1722 20.908 20.4204 21.0057 20.6646C21.1115 20.9006 21.2051 21.1447 21.2865 21.397H21.3719C21.3638 21.1203 21.3556 20.8558 21.3475 20.6035C21.3475 20.3431 21.3475 20.0745 21.3475 19.7979V9.22656H24.6922V27H20.5907L14.6947 16.3555C14.5645 16.1032 14.4465 15.855 14.3407 15.6108C14.243 15.3667 14.1535 15.1185 14.0721 14.8662H13.9867C14.0029 15.1429 14.0111 15.4196 14.0111 15.6963C14.0192 15.9648 14.0233 16.2375 14.0233 16.5142V27H10.6786Z" fill="white"/>
</svg>
