<svg width="36" height="36" viewBox="0 0 36 36" fill="none" xmlns="http://www.w3.org/2000/svg">
<circle cx="18" cy="18" r="18" fill="#0C7FC0"/>
<path d="M11.6795 27V9.22656H18.6375C20.6314 9.22656 22.1654 9.73926 23.2396 10.7646C24.3138 11.79 24.8509 13.2223 24.8509 15.0615C24.8509 16.8926 24.3179 18.3289 23.2518 19.3706C22.1857 20.4041 20.6395 20.9209 18.6131 20.9209H15.5614V27H11.6795ZM15.5614 18.1011H18.1004C19.1747 18.1011 19.9193 17.8285 20.3343 17.2832C20.7575 16.738 20.9691 16.0055 20.9691 15.0859C20.9691 14.1745 20.7575 13.4543 20.3343 12.9253C19.9193 12.3882 19.1747 12.1196 18.1004 12.1196H15.5614V18.1011Z" fill="white"/>
</svg>
